<svg aria-hidden="true" aria-label="series" color="#f9f9f9" viewBox="0 0 36 36" xmlns="http://www.w3.org/2000/svg" data-route="SERIES" style="height:24px;min-width:24px;width:24px;z-index:auto" class="sc-chPdSV sFNPE"><path d="M18.84 11.965h6.722a4 4 0 014 4V26a4 4 0 01-4 4H10.375a4 4 0 01-4-4V15.965a4 4 0 014-4h6.211l-3.981-3.981a1.162 1.162 0 111.643-1.644l3.465 3.465 3.464-3.465a1.162 1.162 0 011.644 1.644l-3.982 3.981zm6.428 7.73a1.718 1.718 0 100-3.436 1.718 1.718 0 000 3.436zm0 6.011a1.718 1.718 0 100-3.435 1.718 1.718 0 000 3.435z" class="sc-kAzzGY dGwULW"/></svg>