<svg xmlns="http://www.w3.org/2000/svg" width="318" height="220" style="width:100%;height:100%"><g clip-path="url(https://www.disneyplus.com/originals#__lottie_element_2)"><g class="9 19-LOTTIE" clip-path="url(https://www.disneyplus.com/originals#__lottie_element_31)" transform="matrix(.15 0 0 .15 6.3 -3.625)" display="block"><g fill="#8095A7" opacity=".01" display="block"><path d="M1857.409 752.435h-11.56a90.993 90.993 0 00-1.45-11.698.86.86 0 00-.846-.703h-2.664a.785.785 0 00-.767.936 84.608 84.608 0 011.472 11.469h-11.12a.938.938 0 00-.94.936v2.403c0 .518.42.94.94.94h11.28c.007.594.012 1.125.012 1.624 0 3.464-.148 6.317-.498 9.538a.865.865 0 00.223.68.865.865 0 00.644.288h2.472a.933.933 0 00.93-.843c.337-3.243.482-6.132.482-9.663 0-.497-.005-1.03-.012-1.623h11.402c.517 0 .94-.423.94-.941v-2.403a.941.941 0 00-.94-.94z"/><path d="M1857.409 752.435h-11.56a90.993 90.993 0 00-1.45-11.698.86.86 0 00-.846-.703h-2.664a.785.785 0 00-.767.936 84.608 84.608 0 011.472 11.469h-11.12a.938.938 0 00-.94.936v2.403c0 .518.42.94.94.94h11.28c.007.594.012 1.125.012 1.624 0 3.464-.148 6.317-.498 9.538a.865.865 0 00.223.68.865.865 0 00.644.288h2.472a.933.933 0 00.93-.843c.337-3.243.482-6.132.482-9.663 0-.497-.005-1.03-.012-1.623h11.402c.517 0 .94-.423.94-.941v-2.403a.941.941 0 00-.94-.94z"/></g><g fill="#8095A7" opacity=".01" display="block"><path d="M1916.409 1013.935h-11.56a90.993 90.993 0 00-1.45-11.698.86.86 0 00-.846-.703h-2.664a.785.785 0 00-.767.936 84.608 84.608 0 011.472 11.469h-11.12a.938.938 0 00-.94.936v2.403c0 .518.42.94.94.94h11.28c.007.594.012 1.125.012 1.624 0 3.464-.148 6.317-.498 9.538a.865.865 0 00.223.68.865.865 0 00.644.288h2.472a.933.933 0 00.93-.843c.337-3.243.482-6.132.482-9.663 0-.497-.005-1.03-.012-1.623h11.402c.517 0 .94-.423.94-.941v-2.403a.941.941 0 00-.94-.94z"/><path d="M1916.409 1013.935h-11.56a90.993 90.993 0 00-1.45-11.698.86.86 0 00-.846-.703h-2.664a.785.785 0 00-.767.936 84.608 84.608 0 011.472 11.469h-11.12a.938.938 0 00-.94.936v2.403c0 .518.42.94.94.94h11.28c.007.594.012 1.125.012 1.624 0 3.464-.148 6.317-.498 9.538a.865.865 0 00.223.68.865.865 0 00.644.288h2.472a.933.933 0 00.93-.843c.337-3.243.482-6.132.482-9.663 0-.497-.005-1.03-.012-1.623h11.402c.517 0 .94-.423.94-.941v-2.403a.941.941 0 00-.94-.94z"/></g><path fill="#FFF" d="M1854.098 847.01h-103.532c-2.065-35.182-6.319-69.471-12.996-104.767a7.709 7.709 0 00-7.57-6.303h-23.861a6.992 6.992 0 00-5.392 2.551c-1.35 1.657-1.886 3.768-1.479 5.83 6.773 34.16 11.078 67.782 13.19 102.724h-99.605c-4.644 0-8.413 3.751-8.413 8.38v21.524c0 4.644 3.77 8.428 8.413 8.428h101.033c.066 5.311.114 10.071.114 14.538 0 31.025-1.332 56.576-4.465 85.422a7.744 7.744 0 001.997 6.091 7.746 7.746 0 005.767 2.584h22.139c4.32 0 7.895-3.25 8.331-7.553 3.022-29.043 4.322-54.92 4.322-86.544 0-4.449-.048-9.227-.112-14.538h102.12c4.627 0 8.415-3.784 8.415-8.428v-21.525c0-4.644-3.788-8.413-8.416-8.413z" display="block"/><g clip-path="url(https://www.disneyplus.com/originals#__lottie_element_44)" transform="translate(0 -.5)" display="block"><g display="block" clip-path="url(https://www.disneyplus.com/originals#__lottie_element_45)"><path fill="url(https://www.disneyplus.com/originals#__lottie_element_50)" mask="url(https://www.disneyplus.com/originals#__lottie_element_52)" d="M-16.596-114.137c-119.947 0-231.25 59.595-297.73 159.422a4.152 4.152 0 00-.488 3.684 4.236 4.236 0 002.64 2.648l9.307 3.138a5.495 5.495 0 001.669.269 5.182 5.182 0 004.303-2.289c30.486-44.789 71.754-82.079 119.329-107.847 49.123-26.6 104.783-40.665 160.97-40.665 67.868 0 133.353 20.014 189.38 57.883 54.664 36.949 97.113 88.485 122.767 149.049a4.883 4.883 0 004.499 2.982h11.115a3.884 3.884 0 003.211-1.718 3.866 3.866 0 00.381-3.619c-26.452-65.128-71.19-120.64-129.383-160.522-59.571-40.836-129.417-62.415-201.97-62.415zM-315.04 114.138h630.08v-228.275h-630.08v228.275zm630.278-.001h-630.476v-228.274h630.476v228.274z" transform="matrix(1.97399 0 0 1.97399 1103.092 470.283)"/></g></g><g display="block"><path fill="#FFF" d="M897.782 670.133c-1.838-8.649-5.787-14.603-13.012-20.83-3.596-3.089-12.398-7.721-18.52-8.78-1.771-.325-4.004-.536-4.849-1.084-.955-.606-1.714-1.856-2.635-3.014-4.379-5.559-13.071-10.873-19.31-13.018-19.171-6.641-44.756-1.63-62.213 5.731-18.465 7.817-35.448 19.316-48.431 33.143-12.895 13.678-22.817 31.02-21.774 49.837.302 6.034 2.736 15.388 5.752 20.76 2.571 4.55 7.341 9.448 8.384 14.207.627 2.83.065 6.526.183 9.869.237 7.66 3.568 15.553 9.32 20.638 4.12 3.623 7.72 3.474 11.974.34 1.213-.852 3.043-2.995 4.032-4.664 1.858-3.111 3.64-7.418 5.322-9.2.215-.25 1.411.38 2.348 1.098.751.512 7.783 2.316 9.697 2.486 3.767.249 7.744 1.27 11.61 1.594 12.454 1.12 29.556-2.884 40.533-7.17 24.995-9.788 44.291-23.849 63.833-43.847 11.413-11.61 21.43-30.7 17.756-48.096zM746.075 703.79c-4.545 6.165-9.97 14.306-9.97 14.306s-1.158-2.426-1.904-4.246c-5.146-12.79 6.231-27.193 16.578-36.051 6.279-5.388 18.83-13.734 27.385-15.402 3.608-.741 9.972-1.383 9.972-1.383s-4.07 3.336-7.522 6.276c-11.28 9.658-26.261 25.255-34.54 36.5zm93.474 15.956c-14.251 7.915-29.565 12.62-45.914 13.74-6.392.434-23.247.606-23.733-1.198-.144-.435.96-2.067 2.394-3.833 2.256-2.885 5.14-7.076 7.99-10.832 12.345-15.917 35.086-35.858 51.123-45.174 5.466-3.131 8.075-4.154 13.861-5.862 7.969-2.356 11.214-2.789 17.45-.092 4.804 2.047 8.598 6.432 9.25 12.235 2.132 17.945-18.426 33.2-32.42 41.016zM799.769 908.212c-.83-17.923-2.964-63.686-7.965-84.363-2.167-8.902-5.765-17.02-14.529-20.357-1.009-.38-2.183-.722-2.944-.855-5.481-1.063-8.62 6.486-10.098 10.24-4.329 11.121-7.446 37.661-8.302 45.933-2.569 25.08-4.666 84.5-.312 114.782 1.83 12.685 6.005 20.925 18.828 23.582 5.206 1.082 14.676.871 18.84-1.788 3.635-2.258 6.173-6.671 7.022-10.454 2.35-10.547 1.439-25.516.964-36.766-.562-13.28-.899-26.52-1.504-39.954zM731.722 850.781c-.174-.211-1.406-5.535-2.255-9.163-.84-3.66-5.95-16.342-7.141-18.463-3.465-6.183-5.552-11.43-8.236-16.769-11.174-22.3-34.174-50.38-52.67-68.715-9.55-9.477-22.748-21.331-32.842-29.587-4.838-4.026-35.978-26.899-41.3-30.409-16.872-11.046-46.908-27.945-65.97-37.142-26.565-12.798-62.856-26.862-90.576-35.236-48.426-14.708-95.727-23.444-145.717-21.559-22.081.843-51.613 5.342-74.997 11.774-16.472 4.503-27.71 11.675-35.562 25.486-3.91 6.902-7.526 14.363-5.553 21.977 1.699 6.466 10.943 8.734 18.362 9.92 7.144 1.126 23.373 2.02 27.682-3.227 1.842-2.284 1.64-4.44.104-7.17-1.613-2.878-5.705-4.94-9.626-5.684-4.393-.805-12.872-1.338-14.897-2.213-1.114-.478-2.29-1.128-2.29-1.128s.476-.53.948-.913c.865-.703 4.003-2.023 5.994-2.501 2.53-.572 5.27-1.487 7.987-2.252 19.017-5.265 56.657-6.14 73.91-5.49 66.961 2.496 129.316 17.413 192.4 43.34 61.792 25.413 132.03 68.753 173.01 121.462 15.501 19.939 34.927 52.691 37.273 80.298 2.13 25.256-5.94 49.448-21.361 67.13-11.697 13.352-27.148 23.215-43.985 31.146-38.362 18.112-85.025 21.85-126.82 20.74-5.496-.132-26.154-1.986-31.028-2.727-8.503-1.376-19.278-3.439-19.278-3.439l-2.755-129.352s13.038.454 22.205.992c23.43 1.39 71.907 9.398 96.183 19.04 5.18 2.039 10.608 5.2 11.092 10.335.343 3.95-2.784 7.32-6.268 10.392-1.63 1.487-3.373 2.72-5.472 3.863-4.19 2.207-11.282 5.968-11.782 6.598-1.323 1.752-1.419 4.349.41 5.802 4.677 3.616 19.85 5.623 23.888 5.392 13.544-.756 26.914-9.952 33.974-22.318 6.285-10.95 6.899-19.345 2.773-31.48-4.441-13.239-18.14-25.748-32.783-33.169-17.78-9.007-48.786-15.778-64.688-18.318-12.426-1.979-25.621-3.873-37.582-4.156-12.325-.342-32.345.246-32.345.246s-.388-17.547-1.166-29.221c-1.295-19.155-6.6-56.795-24.05-67.65-3.191-1.964-7.106-2.195-9.314.783-3.383 4.425-6.694 21.268-7.447 25.639-1.431 8.09-5.884 46.34-5.752 52.175.123 5.912-.465 22.11-.82 22.605-.201.233-.4.422-.677.632-.688.438-11.834 2.44-19.022 3.472-15.222 2.212-51.848 14.176-63.64 19.382-16.05 7.016-39.497 19.34-46.031 35.689-4.73 11.734-2.944 21.575 3.285 32.645 8 14.174 18.527 25.232 30.223 36.335 4.176 3.938 23.084 19.764 27.48 23.05 15.885 11.733 34.035 23.137 53.148 32.565 6.227 3.093 13.686 6.633 13.686 6.633s1.469 14.961 2.884 23.582c1.738 10.758 5.318 20.088 15.29 24.29 6.073 2.595 13.056 2.186 19.627.966 5.448-1.044 9.191-3.474 11.475-8.186.871-1.764 2.424-7.19 2.673-9.25.516-4.515.467-10.951.467-10.951s16.071 3.707 26.87 5.67c31.384 5.8 65.424 6.333 95.04 2.763 43.655-5.338 94.534-21.519 127.407-49.926 8.84-7.64 23.72-25.5 29.986-36.78 3.653-6.58 7.098-13.177 10.598-21.231.715-1.619 5.047-14.862 5.868-20.618.436-2.484 3.006-21.386 1.913-31.378.182-4.2-2.174-15.098-2.417-17.038zm-368.39 106.614c-22.993-9.627-54.209-29.448-69.599-42.294-3.673-3.072-16.767-15.671-19.085-18.388-4.002-4.694-7.602-9.23-6.593-15.03.964-5.592 12.017-10.204 17.448-12.157 18.133-6.478 49.552-11.902 66.273-13.71 13.142-1.453 32.237-2.806 32.237-2.806s-.42 19.133-.515 38.479c-.177 36.645.794 73.847.794 73.847s-13.068-4.68-20.96-7.94zM1530.415 815.142c-40.058-27.801-104.683 60.345-133.118 104.05-4.232-22.256 10.82-50.478 10.82-50.478s24.137-41.788 27.554-50.279c3.293-8.54 5.212-26.093 1.066-27.837-3.763-1.735-10.263 3.886-10.263 3.886-54.204 48.645-61.78 102.614-61.78 102.614-5.123 29.063.869 49.476 9.657 63.761-30.132 64.192-44.872 120.18-40.949 153.292 3.652 25.202 21.71 43.422 32.665 47.271 11.067 4.616 13.034-8.69 13.034-8.69 8.963-68.476 24.634-114.25 43.287-159.49 56.496 12.981 99.014-42.026 114.066-68.305 8.846-15.778 13.62-36.847 13.618-56.657-.004-22.572-6.209-43.512-19.657-53.138zm-36.827 109.151c-6.486 6.154-27.961 18.233-50.217 20.732 21.216-41.118 47.57-71.383 62.174-87.537 16.995-19.137 19.225-1.758 19.225-1.758 3.96 33.782-20.624 59.193-31.182 68.563zM1341.632 956.86c2.699-10.286-6.66-21.562-15.124-23.667-7.9-1.632-68.528 9.743-75.78 11.685-7.799 2.092-4.322-5.237-4.322-5.237l9.37-31.7s57.87-2.226 66.299-3.638c7.787-1.399 8.254-6.894 8.254-6.894s1.002-9.073.717-17.54c-.853-9.074-8.104-8.233-8.104-8.233-22.378-2.34-53.142.3-53.142.3l7.76-24.326s61.557-2.994 84.965-8.392c12.02-2.834 4.953-14.644 4.953-14.644-14.592-29.187-31.415-27.54-31.415-27.54-48.411-1.623-118.77 11.214-126.444 15.015-7.18 3.255-6.4 8.664 2.957 20.46 10.052 12.428 26.947 11.264 26.947 11.264l-14.83 30.686c-12.117.855-16.262 4.628-16.262 4.628-6.983 7.455 2.647 29.474 2.647 29.474s-21.017 47.148-5.779 72.053c16.375 26.143 35.735 24.892 35.735 24.892 36.85 2.687 97.37-35.896 100.598-48.645zM1006.76 808.078c-27.675-14.71-73.212-14.744-101.388-11.234-29.11 3.602-68.061 12.681-84.696 36.598-6.349 9.125-10.076 23.153-7.156 34.577 1.65 6.344 7.193 12.073 12.858 14.622 5.641 2.54 12.719 3.853 19.23 4.78 6.331.937 32.686 3.11 49.427 4.558 15.964 1.312 46.95 4.712 63.722 11.708 0 0 15.882 5.538 15.776 14.6-.038 4.482-3.39 8.048-6.789 10.477-24.893 17.636-59.1 22.645-89.526 22.147-10.309-.141-18.812-1.764-29.28-6.255-4.46-1.955-10.307-6.613-9.464-11.602 1.694-9.677 12.39-12.151 21.246-11.31 4.933.453 11.389 2.56 16.234 4.459 19.512 7.702 28.418 14.192 45.584 11.577 6.408-.971 28.614-5.785 31.598-14.934.746-2.23-.323-4.634-1.963-6.3-2.34-2.396-15.703-7.594-19.326-8.908-13.08-4.646-37.87-8.906-51.637-9.436-18.075-.64-42.04 2.737-53.235 18.055-7.024 9.627-7.212 22.78-1.435 32.89 7.851 13.817 23.406 24.535 36.159 30.758 21.543 10.42 47.397 15.375 71.347 12.748 13.692-1.568 25.615-4.36 37.734-10.231 11.667-5.619 24.441-16.2 30.268-28.828 7.791-16.974 7.229-39.388-1.398-55.392-5.666-10.55-11.873-16.478-22.475-21.156-11.428-5.11-26.365-7.847-41.567-9.912-.911-.12-1.11-.154-2.043-.287l-70.22-8.276c-.945-.1-1.12-.132-2.025-.343-3.046-.628-17.251-2.163-12.278-7.57 1.395-1.557 5.7-2.715 8.188-3.42 31.77-8.677 72.09-7.689 105.442-9.564 7.449-.459 24.401-1.485 32.59-4.084 7.803-2.428 14.257-7.951 16.055-16.532.899-4.555-1.286-6.7-5.557-8.98zM1132.369 769.527s-8.579-4.008-10.746 4.545c-2.178 8.467 1.053 17.488 1.053 17.488 21.341 72.412 26.19 115.191 26.19 115.191s.992 12.591-1.458 13.283c-1.71 1.302-3.616-.496-3.616-.496-2.45.087-25.844-39.163-25.844-39.163l-4.545-7.686c-25.746-41.553-41.353-55.701-41.353-55.701-3.654-3.418-13.022-12.826-24.694.135-11.687 13.046-20.836 54.932-24.51 94.32-3.132 39.3-.743 61.669 4.988 71.103 6.315 9.555 18.481 12.808 28.52 4.626 10.61-8.156 8.616-59.998 10.284-86.586 1.61-26.7 4.234-21.93 4.234-21.93 2.34-.633 14.497 23.804 14.497 23.804s32.009 65.525 52.11 75.23c20.363 9.681 36.752-5.904 42.953-20.496 6.3-14.694 17.02-63.301 1.064-117.17-16.053-53.86-49.127-70.497-49.127-70.497z"/></g></g><path fill="#FFF" d="M263.676 186.668a4.033 4.033 0 00-1.512-.896 5.607 5.607 0 00-1.736-.272c-.523 0-1.034.07-1.536.208-.501.139-.946.35-1.336.632a3.28 3.28 0 00-.943 1.064c-.241.427-.361.933-.361 1.52 0 .672.133 1.208.401 1.608.266.4.596.72.991.96.394.24.827.429 1.297.568.468.139.9.285 1.296.441.394.154.724.343.991.567.266.225.4.544.4.96 0 .256-.058.483-.176.681a1.5 1.5 0 01-.464.487 2.186 2.186 0 01-.64.288 2.667 2.667 0 01-.704.097c-.447 0-.871-.105-1.272-.313a2.531 2.531 0 01-.967-.872l-1.521 1.472c.47.555 1.029.95 1.681 1.184.65.235 1.327.352 2.031.352.555 0 1.083-.074 1.584-.224a3.894 3.894 0 001.32-.672c.379-.298.68-.674.905-1.128.223-.453.335-.984.335-1.591 0-.673-.133-1.211-.4-1.617a3.227 3.227 0 00-.992-.976 5.289 5.289 0 00-1.296-.576c-.47-.138-.901-.283-1.296-.432a3.912 3.912 0 01-.992-.528c-.267-.202-.4-.495-.4-.88 0-.256.053-.477.161-.664a1.35 1.35 0 01.423-.456c.176-.117.374-.202.592-.256a2.994 2.994 0 011.808.136c.357.144.642.371.856.68l1.472-1.552zM235.227 195.292v-9.503h-2.017v11.326h6.832v-1.823h-4.815zM210.171 185.789l-4.929 11.326h2.257l1.025-2.59h4.912l1.054 2.59h2.306l-4.881-11.326h-1.744zm-.959 7.007l1.774-4.608 1.745 4.608h-3.519zM186.811 194.204h-.032l-5.488-8.416h-2.671v11.328h2.015v-8.687h.032l5.6 8.687h2.561v-11.328h-2.017v8.416zM158.972 197.116h2.016v-11.328h-2.016v11.328zM137.147 192.316h2.32v2.672a4.106 4.106 0 01-1.208.448 6.976 6.976 0 01-1.448.145 3.85 3.85 0 01-1.592-.321 3.689 3.689 0 01-1.224-.88 3.954 3.954 0 01-.792-1.328 4.88 4.88 0 01-.28-1.679c0-.566.094-1.094.28-1.584.187-.492.451-.921.792-1.288.341-.369.75-.657 1.224-.865a3.93 3.93 0 011.592-.312c.576 0 1.123.096 1.64.288.517.192.958.464 1.32.816l1.488-1.504a5.01 5.01 0 00-2.032-1.112 9.148 9.148 0 00-2.432-.312c-.875 0-1.677.142-2.408.424-.73.283-1.36.685-1.887 1.208a5.546 5.546 0 00-1.241 1.896c-.299.742-.448 1.565-.448 2.473 0 .884.149 1.69.448 2.416a5.511 5.511 0 001.241 1.863 5.482 5.482 0 001.887 1.2c.731.282 1.533.424 2.408.424 1.728 0 3.291-.373 4.688-1.12v-5.792h-4.336v1.824zM111.771 197.116h2.016v-11.328h-2.016v11.328zM94.068 191.1c.453-.555.68-1.242.68-2.065 0-.639-.118-1.166-.352-1.582a2.728 2.728 0 00-.944-.993 4.044 4.044 0 00-1.352-.52 8.047 8.047 0 00-1.576-.151h-3.936v11.326h2.016v-4.798h1.472l2.624 4.798h2.432l-3.008-5.006c.842-.118 1.49-.455 1.944-1.009zm-3.032-.552c-.288.026-.576.04-.864.04h-1.568v-3.072h1.744c.256 0 .52.017.792.049s.52.097.744.199c.224.101.405.253.544.456.138.203.208.47.208.8 0 .374-.075.664-.224.872a1.36 1.36 0 01-.584.464c-.24.101-.504.166-.792.192zM67.82 187.085a5.308 5.308 0 00-1.904-1.192c-.736-.272-1.547-.402-2.432-.392-.875 0-1.677.141-2.408.424a5.432 5.432 0 00-1.888 1.208 5.548 5.548 0 00-1.24 1.896c-.299.742-.448 1.565-.448 2.472 0 .885.149 1.691.448 2.416a5.518 5.518 0 001.24 1.864 5.486 5.486 0 001.888 1.2c.731.282 1.533.424 2.408.424.885-.011 1.696-.163 2.432-.456a5.703 5.703 0 001.904-1.224 5.543 5.543 0 001.248-1.872c.299-.726.448-1.53.448-2.416 0-.906-.149-1.728-.448-2.464a5.504 5.504 0 00-1.248-1.888zm-.696 5.968a3.954 3.954 0 01-.792 1.328 3.674 3.674 0 01-1.232.88c-.48.213-1.014.32-1.6.32a3.843 3.843 0 01-1.592-.32 3.693 3.693 0 01-1.224-.88 3.954 3.954 0 01-.792-1.328 4.863 4.863 0 01-.28-1.68c0-.565.093-1.093.28-1.584.187-.491.451-.921.792-1.288a3.636 3.636 0 011.224-.864 3.923 3.923 0 011.592-.312c.586 0 1.12.104 1.6.312.48.208.891.496 1.232.864.341.367.605.797.792 1.288.187.491.28 1.019.28 1.584 0 .608-.093 1.168-.28 1.68z" display="block"/></g></svg>