<svg alt="" aria-hidden="true" aria-label="arrowRight" color="white" role="img" version="1.1" viewBox="0 0 36 36" xmlns="http://www.w3.org/2000/svg" style="height: 20px; min-width: 20px; width: 20px; z-index: auto;" class="sc-chPdSV sFNPE"><path d="M13.065 7.65c-.538-.578-.355-1.433.325-1.81a1.44 1.44 0 0 1 .72-.182c.398 0 .786.15 1.048.437L25.327 17.07a1.126 1.126 0 0 1 0 1.555L15.155 29.568c-.438.468-1.198.563-1.767.25-.681-.377-.863-1.23-.325-1.809l9.446-10.164L13.065 7.65zm11.211 10.393a.31.31 0 0 1 0-.391l-.181.194.181.197zM14.081 28.564c.01.006.053 0 .028.027a.07.07 0 0 0-.028-.027zm.024-21.5a.95.95 0 0 1 .007.008l-.007-.007z" class="sc-kAzzGY dGwULW"></path></svg>