<svg aria-hidden="true" aria-label="arrowLeft" color="#fff" viewBox="0 0 36 36" xmlns="http://www.w3.org/2000/svg" style="height:20px;min-width:20px;width:20px;z-index:auto" class="sc-chPdSV sFNPE"><path d="M22.324 28.008c.537.577.355 1.433-.326 1.809a1.44 1.44 0 01-.72.183c-.398 0-.786-.151-1.048-.438L10.06 18.588a1.126 1.126 0 010-1.555L20.233 6.09c.438-.468 1.198-.564 1.767-.25.681.377.863 1.23.325 1.808l-9.446 10.164 9.446 10.196zM11.112 17.615a.31.31 0 010 .391l.182-.195-.182-.196zM21.308 7.094c-.01-.006-.053 0-.029-.027a.07.07 0 00.029.027zm-.025 21.499a.95.95 0 01-.006-.008l.006.008z" class="sc-kAzzGY dGwULW"/></svg>